<svg xmlns="http://www.w3.org/2000/svg" version="1.1" xmlns:xlink="http://www.w3.org/1999/xlink" xmlns:svgjs="http://svgjs.dev/svgjs" viewBox="0 0 25.47913495755808 19.570399955227714"><g transform="matrix(1,0,0,1,1.857608426386463,16.64885652884125)"><g><path d=" M 0.23901075 1.02422475 Q 0.134865 0.9845145 0.0764235 0.9215774999999999 L 0.110889 0.8646345 Q 0.1663335 0.923076 0.25998975 0.9597892499999999 Q 0.353646 0.9965025 0.4570425 0.9965025 Q 0.6068925000000001 0.9965025 0.683316 0.9395595 Q 0.7597395 0.8826164999999999 0.7597395 0.7912079999999999 Q 0.7597395 0.7207785 0.71928 0.6788204999999999 Q 0.6788205 0.6368624999999999 0.6188805000000001 0.614385 Q 0.5589405000000001 0.5919074999999999 0.4570425 0.5679314999999999 Q 0.341658 0.5394599999999999 0.27197775 0.5124869999999999 Q 0.20229750000000002 0.4855139999999999 0.15359625000000002 0.42932024999999996 Q 0.104895 0.3731264999999999 0.104895 0.2787209999999999 Q 0.104895 0.2022974999999999 0.1453545 0.13861124999999996 Q 0.185814 0.07492499999999991 0.26898075 0.037462499999999954 Q 0.3521475 0 0.47652300000000003 0 Q 0.563436 0 0.647352 0.025474499999999844 Q 0.731268 0.05094899999999991 0.7927065 0.09440549999999992 L 0.764235 0.15584399999999987 Q 0.701298 0.11238749999999997 0.62562375 0.08990999999999993 Q 0.5499495 0.0674324999999999 0.47652300000000003 0.0674324999999999 Q 0.33116850000000003 0.0674324999999999 0.2562435 0.12587399999999993 Q 0.1813185 0.18431549999999997 0.1813185 0.2772224999999999 Q 0.1813185 0.34765199999999996 0.221778 0.3896099999999999 Q 0.2622375 0.43156799999999995 0.3221775 0.4540454999999999 Q 0.3821175 0.4765229999999999 0.485514 0.5019975 Q 0.6008985 0.530469 0.6698295 0.557442 Q 0.7387605 0.5844149999999999 0.7874617500000001 0.6391102499999999 Q 0.836163 0.6938055 0.836163 0.7867124999999999 Q 0.836163 0.8631359999999999 0.79495425 0.9260729999999999 Q 0.7537455000000001 0.98901 0.668331 1.0264725 Q 0.5829165000000001 1.0639349999999999 0.45854100000000003 1.0639349999999999 Q 0.34315650000000003 1.0639349999999999 0.23901075 1.02422475 M 2.758302120410156 0.1011487499999999 Q 2.870689620410156 0.1948049999999999 2.870689620410156 0.3611384999999999 Q 2.870689620410156 0.5259735 2.758302120410156 0.6196297499999999 Q 2.645914620410156 0.7132859999999999 2.448112620410156 0.7132859999999999 L 2.148412620410156 0.7132859999999999 L 2.148412620410156 1.0564425 L 2.071989120410156 1.0564425 L 2.071989120410156 0.007492499999999902 L 2.448112620410156 0.007492499999999902 Q 2.645914620410156 0.007492499999999902 2.758302120410156 0.1011487499999999 M 2.7043561204101563 0.5709285 Q 2.792767620410156 0.4975019999999999 2.792767620410156 0.3611384999999999 Q 2.792767620410156 0.22477499999999995 2.7043561204101563 0.15059924999999996 Q 2.615944620410156 0.07642349999999987 2.448112620410156 0.07642349999999987 L 2.148412620410156 0.07642349999999987 L 2.148412620410156 0.644355 L 2.448112620410156 0.644355 Q 2.615944620410156 0.644355 2.7043561204101563 0.5709285 M 4.176223063330078 1.02422475 Q 4.0720773133300785 0.9845145 4.013635813330078 0.9215774999999999 L 4.048101313330078 0.8646345 Q 4.103545813330078 0.923076 4.197202063330078 0.9597892499999999 Q 4.290858313330078 0.9965025 4.394254813330078 0.9965025 Q 4.544104813330078 0.9965025 4.6205283133300785 0.9395595 Q 4.696951813330078 0.8826164999999999 4.696951813330078 0.7912079999999999 Q 4.696951813330078 0.7207785 4.656492313330078 0.6788204999999999 Q 4.616032813330078 0.6368624999999999 4.556092813330078 0.614385 Q 4.496152813330078 0.5919074999999999 4.394254813330078 0.5679314999999999 Q 4.278870313330078 0.5394599999999999 4.2091900633300785 0.5124869999999999 Q 4.139509813330078 0.4855139999999999 4.090808563330078 0.42932024999999996 Q 4.042107313330078 0.3731264999999999 4.042107313330078 0.2787209999999999 Q 4.042107313330078 0.2022974999999999 4.082566813330078 0.13861124999999996 Q 4.123026313330078 0.07492499999999991 4.206193063330078 0.037462499999999954 Q 4.289359813330078 0 4.413735313330078 0 Q 4.500648313330078 0 4.584564313330078 0.025474499999999844 Q 4.668480313330078 0.05094899999999991 4.7299188133300785 0.09440549999999992 L 4.701447313330078 0.15584399999999987 Q 4.6385103133300785 0.11238749999999997 4.562836063330078 0.08990999999999993 Q 4.487161813330078 0.0674324999999999 4.413735313330078 0.0674324999999999 Q 4.2683808133300785 0.0674324999999999 4.193455813330078 0.12587399999999993 Q 4.118530813330078 0.18431549999999997 4.118530813330078 0.2772224999999999 Q 4.118530813330078 0.34765199999999996 4.158990313330078 0.3896099999999999 Q 4.199449813330078 0.43156799999999995 4.259389813330078 0.4540454999999999 Q 4.319329813330078 0.4765229999999999 4.422726313330078 0.5019975 Q 4.5381108133300785 0.530469 4.607041813330078 0.557442 Q 4.675972813330078 0.5844149999999999 4.724674063330078 0.6391102499999999 Q 4.773375313330078 0.6938055 4.773375313330078 0.7867124999999999 Q 4.773375313330078 0.8631359999999999 4.732166563330078 0.9260729999999999 Q 4.690957813330078 0.98901 4.605543313330078 1.0264725 Q 4.5201288133300785 1.0639349999999999 4.395753313330078 1.0639349999999999 Q 4.280368813330078 1.0639349999999999 4.176223063330078 1.02422475 M 6.846862933740234 0.007492499999999902 L 6.379330933740234 1.0564425 L 6.302907433740234 1.0564425 L 5.835375433740234 0.007492499999999902 L 5.919291433740234 0.007492499999999902 L 6.343366933740234 0.9575414999999999 L 6.767442433740234 0.007492499999999902 L 6.846862933740234 0.007492499999999902 M 9.57777543017578 0.07642349999999987 L 9.20015343017578 0.07642349999999987 L 9.20015343017578 0.007492499999999902 L 10.03182093017578 0.007492499999999902 L 10.03182093017578 0.07642349999999987 L 9.654198930175781 0.07642349999999987 L 9.654198930175781 1.0564425 L 9.57777543017578 1.0564425 L 9.57777543017578 0.07642349999999987 M 11.925457819628905 1.0564425 L 11.675208319628906 0.7057935 Q 11.619763819628906 0.7132859999999999 11.573310319628906 0.7132859999999999 L 11.273610319628906 0.7132859999999999 L 11.273610319628906 1.0564425 L 11.197186819628905 1.0564425 L 11.197186819628905 0.007492499999999902 L 11.573310319628906 0.007492499999999902 Q 11.771112319628905 0.007492499999999902 11.883499819628906 0.1011487499999999 Q 11.995887319628906 0.1948049999999999 11.995887319628906 0.3611384999999999 Q 11.995887319628906 0.4855139999999999 11.932201069628906 0.5701792499999999 Q 11.868514819628906 0.6548444999999999 11.750133319628905 0.6893099999999999 L 12.012370819628906 1.0564425 L 11.925457819628905 1.0564425 M 11.573310319628906 0.6458534999999999 Q 11.741142319628906 0.6458534999999999 11.829553819628906 0.5716777499999999 Q 11.917965319628905 0.4975019999999999 11.917965319628905 0.3611384999999999 Q 11.917965319628905 0.22477499999999995 11.829553819628906 0.15059924999999996 Q 11.741142319628906 0.07642349999999987 11.573310319628906 0.07642349999999987 L 11.273610319628906 0.07642349999999987 L 11.273610319628906 0.6458534999999999 L 11.573310319628906 0.6458534999999999 M 13.901485868261718 0.7612379999999999 L 13.293094868261718 0.7612379999999999 L 13.159728368261717 1.0564425 L 13.077310868261717 1.0564425 L 13.559827868261717 0.007492499999999902 L 13.636251368261718 0.007492499999999902 L 14.118768368261717 1.0564425 L 14.036350868261717 1.0564425 L 13.901485868261718 0.7612379999999999 M 13.873014368261718 0.6968025 L 13.597290368261717 0.09140849999999989 L 13.323064868261717 0.6968025 L 13.873014368261718 0.6968025 M 16.06937533022461 0.007492499999999902 L 15.601843330224607 1.0564425 L 15.525419830224608 1.0564425 L 15.057887830224608 0.007492499999999902 L 15.141803830224609 0.007492499999999902 L 15.565879330224607 0.9575414999999999 L 15.989954830224608 0.007492499999999902 L 16.06937533022461 0.007492499999999902 M 17.939049390087888 0.9875115 L 17.939049390087888 1.0564425 L 17.21527389008789 1.0564425 L 17.21527389008789 0.007492499999999902 L 17.91657189008789 0.007492499999999902 L 17.91657189008789 0.07642349999999987 L 17.29169739008789 0.07642349999999987 L 17.29169739008789 0.4900095 L 17.85063789008789 0.4900095 L 17.85063789008789 0.557442 L 17.29169739008789 0.557442 L 17.29169739008789 0.9875115 L 17.939049390087888 0.9875115 M 19.194352352050778 0.007492499999999902 L 19.27077585205078 0.007492499999999902 L 19.27077585205078 0.9875115 L 19.87467135205078 0.9875115 L 19.87467135205078 1.0564425 L 19.194352352050778 1.0564425 L 19.194352352050778 0.007492499999999902 M 21.090329184374994 1.02422475 Q 20.986183434374997 0.9845145 20.927741934374996 0.9215774999999999 L 20.962207434374996 0.8646345 Q 21.017651934374996 0.923076 21.111308184374995 0.9597892499999999 Q 21.204964434374997 0.9965025 21.308360934374996 0.9965025 Q 21.458210934374996 0.9965025 21.534634434374997 0.9395595 Q 21.611057934374994 0.8826164999999999 21.611057934374994 0.7912079999999999 Q 21.611057934374994 0.7207785 21.570598434374997 0.6788204999999999 Q 21.530138934374996 0.6368624999999999 21.470198934374995 0.614385 Q 21.410258934374994 0.5919074999999999 21.308360934374996 0.5679314999999999 Q 21.192976434374994 0.5394599999999999 21.123296184374997 0.5124869999999999 Q 21.053615934374996 0.4855139999999999 21.004914684374995 0.42932024999999996 Q 20.956213434374995 0.3731264999999999 20.956213434374995 0.2787209999999999 Q 20.956213434374995 0.2022974999999999 20.996672934374995 0.13861124999999996 Q 21.037132434374996 0.07492499999999991 21.120299184374996 0.037462499999999954 Q 21.203465934374996 0 21.327841434374996 0 Q 21.414754434374995 0 21.498670434374997 0.025474499999999844 Q 21.582586434374996 0.05094899999999991 21.644024934374997 0.09440549999999992 L 21.615553434374995 0.15584399999999987 Q 21.552616434374997 0.11238749999999997 21.476942184374995 0.08990999999999993 Q 21.401267934374996 0.0674324999999999 21.327841434374996 0.0674324999999999 Q 21.182486934374996 0.0674324999999999 21.107561934374996 0.12587399999999993 Q 21.032636934374995 0.18431549999999997 21.032636934374995 0.2772224999999999 Q 21.032636934374995 0.34765199999999996 21.073096434374996 0.3896099999999999 Q 21.113555934374997 0.43156799999999995 21.173495934374994 0.4540454999999999 Q 21.233435934374995 0.4765229999999999 21.336832434374994 0.5019975 Q 21.452216934374995 0.530469 21.521147934374994 0.557442 Q 21.590078934374997 0.5844149999999999 21.638780184374994 0.6391102499999999 Q 21.687481434374995 0.6938055 21.687481434374995 0.7867124999999999 Q 21.687481434374995 0.8631359999999999 21.646272684374996 0.9260729999999999 Q 21.605063934374996 0.98901 21.519649434374994 1.0264725 Q 21.434234934374995 1.0639349999999999 21.309859434374996 1.0639349999999999 Q 21.194474934374995 1.0639349999999999 21.090329184374994 1.02422475" fill="#102036" fill-rule="nonzero"></path></g><g></g><g clip-path="url(#SvgjsClipPath1001)"><g clip-path="url(#SvgjsClipPath10009b414c03-e584-4b86-8afa-727eed3963cd)"><path d=" M 12.218970546169079 -13.300060754177549 C 13.677438513363878 -13.301385387190301 15.057492769694177 -12.63991270400641 15.969991451460102 -11.502161974821238 L 13.647277299114473 -11.273670025949327 L 16.11635183890736 -11.03074537804343 L 16.317194007547236 -11.010963960531303 C 16.32949753352312 -10.990998358498581 16.341683181405827 -10.970959082657616 16.353750951195344 -10.950846133008415 L 14.533064862950761 -10.771686166133229 L 16.557355887644178 -10.572545862463667 C 16.82003997137553 -10.027110162719366 16.976793173544248 -9.436765603106842 17.01929066530165 -8.83286412637768 L 16.271685696198112 -8.75930819623203 L 13.802500645692866 -8.516383548326132 L 16.2716193897707 -8.273458900420234 L 17.02309223380677 -8.199527233852567 C 16.978965574760412 -7.443598772501193 16.756065249627888 -6.7089351779486535 16.372714589436026 -6.055928844097194 L 15.94282791836244 -6.013669547691395 L 13.473797582854496 -5.770722797643026 L 15.94282791836244 -5.527798149737128 L 16.00913434577739 -5.521167506995633 C 15.097738660854048 -4.3545095137973675 13.699353888526433 -3.673212101496727 12.218904239741665 -3.674555605631806 C 9.56092268824359 -3.674555605631806 7.406206920824969 -5.829271373050426 7.406206920824969 -8.487275026690973 C 7.406152798324584 -8.755877286080654 7.4285167472842275 -9.024015489323588 7.473065901802317 -9.28889763199884 L 10.376314928307677 -9.527004012842301 L 7.575818762152406 -9.756799988120033 C 7.683513296905953 -10.151227562450151 7.841342545830664 -10.530216829140507 8.045445085390016 -10.884495501308535 L 9.5321456987455 -11.03074537804343 L 12.00122023853839 -11.273670025949327 L 9.5321456987455 -11.516550469570282 L 8.559209387143499 -11.612296950757466 C 9.47253279669487 -12.68443924999482 10.81055060958532 -13.301489908439722 12.218970546169079 -13.300060754177553" fill="#3682ae" transform="matrix(1,0,0,1,0,0)" fill-rule="evenodd"></path></g><g clip-path="url(#SvgjsClipPath10009b414c03-e584-4b86-8afa-727eed3963cd)"><path d=" M 18.42211364797723 -4.3419961039906685 C 14.642293651045653 -4.857418066429533 9.349294674077546 -4.788459381917987 5.113861112235388 -4.337111530504435 C 2.5826353478122224 -4.067465392350314 -0.2163578726549762 -3.892040687552832 4.314912866170209 -3.7476473907855468 C 5.9195284096119485 -3.696503033106149 7.724941917408623 -3.6153881702351978 7.76751064380902 -3.4605184579363506 C 7.814278777279029 -3.290530880186896 5.509820994614985 -3.3445706185300796 5.509732586045099 -3.2157151279203617 C 5.509732586045099 -2.99469370320387 8.897637392669393 -3.040953487397033 7.907350899227144 -2.764720910786357 C 7.739750352864628 -2.7179748794588185 6.614066134641057 -2.6907450399337485 6.500461122336779 -2.5778472961885637 C 6.3607976840584275 -2.438935330754246 9.363108513122327 -2.517839979378035 9.40709177664091 -2.4249667767121643 C 9.42174549709961 -2.3940237772518564 8.054993210937763 -2.240170763506706 7.537250523539377 -2.1912145179320017 C 5.342750899671788 -1.9836311958382726 8.4607443424323 -1.9692869053741706 9.421391862820068 -1.8424427097293776 C 9.522177632490786 -1.8291814242463857 8.982819049755129 -1.7640464103824343 8.809869784914472 -1.6669959027894254 C 8.72738458921028 -1.620691914311319 9.207487327979445 -1.5308909094490062 9.393808389015447 -1.515750941855929 C 10.999573243865715 -1.3850830755635375 9.732258496683816 -0.8968909526497466 11.203133976029605 -0.8850442042849433 C 11.769810806860223 -0.8804911629357832 11.901937414555741 -1.2701298325684878 12.229557472413 -1.3027746969991139 C 12.871514200502054 -1.3666277865997092 13.567599075504177 -1.3416744677492165 14.005354109297663 -1.4654243634479815 C 14.471156761887672 -1.597086826151596 12.01003899338458 -1.5626737903232382 12.546281174031735 -1.7206599047105868 C 12.978223344355179 -1.8479019389198719 15.174225913910837 -1.9456818172144494 15.46557635597212 -2.1044857108732486 C 15.807231274298875 -2.290784669766781 12.707228975510285 -2.188473852265517 12.812147845823205 -2.3828179910187295 C 12.917066716136125 -2.577162129771942 16.36908983807067 -2.566044752108702 16.368868816645954 -2.791928648168957 C 16.36866989736371 -2.9494948218493455 14.360005087397749 -2.8440233979746345 14.382991315568264 -2.983841551250288 C 14.405977543738778 -3.1236597045259415 18.50623440222433 -3.083013864520579 18.189112862041107 -3.244646832415752 C 17.4347004330563 -3.502048383640579 15.579402389701112 -3.3367685622375856 15.017455417359429 -3.469889766344327 C 14.455508445017745 -3.6030109704510718 16.776498630250583 -3.7012107894526096 18.485281571161206 -3.7590299941584444 C 22.352338724428385 -3.8898525754481366 21.490089942324403 -3.92366885342976 18.422157852262178 -4.341996103990667" fill="#a5b2ba" transform="matrix(1,0,0,1,0,0)" fill-rule="evenodd"></path></g><g clip-path="url(#SvgjsClipPath10009b414c03-e584-4b86-8afa-727eed3963cd)"><path d=" M 4.014301626413307 -4.105923120250983 C 4.26184562209578 -4.44693707644606 4.582967650066373 -4.730551768642265 4.953090127896612 -4.959331045366307 C 6.7556082550295 -6.073279025937431 9.721008506165745 -5.8859854706326775 11.017122344988202 -4.687121058685474 C 11.991826827987937 -5.273291979176086 13.291432805320918 -5.011447897314458 13.952043741656045 -4.105834711681098 L 4.014301626413307 -4.105834711681098 Z" fill="#102036" transform="matrix(1,0,0,1,0,0)" fill-rule="evenodd"></path></g><g clip-path="url(#SvgjsClipPath10009b414c03-e584-4b86-8afa-727eed3963cd)"><path d=" M 2.9254837818324475 -11.601091164524341 C 2.9254837818324475 -11.601091164524341 2.9894694842878726 -11.53131470074134 3.3638355734726684 -11.150362173099994 C 3.747086723931067 -10.760391971330213 4.319819541798916 -10.155014289031739 4.828632963638755 -9.303043003177073 L 5.069258988727602 -9.494801191261104 L 4.865919277988427 -9.239808773565684 C 4.9518303057757285 -9.092962138984046 5.035730038598109 -8.938976512384064 5.116358654334686 -8.777652974483498 L 5.396282288738124 -8.93621374457511 L 5.149445561614744 -8.710771891364285 C 5.2334337030070115 -8.538817222934853 5.313465560896854 -8.35879527250327 5.388148700308557 -8.170462916502345 L 5.704364052650443 -8.349490270522704 L 5.430297486001993 -8.099183507031276 L 5.419666355473129 -8.089502768628694 C 5.482524848662499 -7.925946914338489 5.541051321927426 -7.756320338249404 5.595245775267911 -7.58062304036144 L 5.613922085656454 -7.591232068747833 L 5.936834387167251 -7.774105195558258 L 5.6627678205188 -7.523798432066828 L 5.622983964069831 -7.487440407700965 C 5.6802506152138745 -7.29170383397204 5.7314170750357425 -7.088496736087697 5.775157214987137 -6.877421275483444 L 5.827583496929888 -6.907126554965343 L 6.150451594155742 -7.089999681775768 L 5.87651764036212 -6.839737122569285 L 5.797193051031371 -6.767219993119804 C 5.830235754026487 -6.595618958969917 5.858592802817613 -6.419221759903685 5.881181192423639 -6.237520046644256 L 5.987890336276761 -6.297969406304217 L 6.310758433502615 -6.480842533114645 L 6.036824479708994 -6.230535769623215 L 5.896917917863453 -6.102741181852137 C 5.952535502819524 -5.577179680787896 5.961241292120882 -5.04770940418711 5.922932139552585 -4.5206035173040675 L 7.05564483908214 -4.506745473974339 C 7.05564483908214 -5.206786632478888 6.893525624052592 -6.076196508743687 6.580824512363698 -6.973830820944781 L 6.324749089687168 -6.842234664668582 L 6.55794879490554 -7.038523791959299 C 6.494869280291454 -7.215827178866871 6.425917963160732 -7.393712588859527 6.3510948435133745 -7.57218002193727 L 6.1057610620780665 -7.446197809848869 L 6.32611942252041 -7.631701091613422 C 6.2446509253699105 -7.822634133045175 6.156573887620389 -8.012852538537015 6.061888309271843 -8.202356308088934 L 5.827848722639549 -8.08212065304316 L 6.034724776174186 -8.256219229292341 C 5.946876127230204 -8.429293739607004 5.853582983857372 -8.600548506858164 5.754845346055691 -8.769983531045831 L 5.539327354814638 -8.659251797262868 L 5.727040850826356 -8.817237911650217 C 5.62886313396729 -8.9832544711356 5.525513515769857 -9.146449323765433 5.416991996234059 -9.306822469539721 L 5.175901826153309 -9.182895756701182 L 5.382711573260531 -9.357016435092838 C 4.736467029531977 -10.29662271584759 3.912035013196985 -11.11174973020202 2.9251301475529004 -11.601201675236695" fill="#102036" transform="matrix(1,0,0,1,0,0)" fill-rule="evenodd"></path></g><g clip-path="url(#SvgjsClipPath10009b414c03-e584-4b86-8afa-727eed3963cd)"><path d=" M 3.8135036620583733 -11.601687922371074 C 3.8135036620583733 -11.601687922371074 2.024467841833191 -11.998310869024822 0.9829927864266045 -11.466378606159639 C -0.05848226897998235 -10.934446343294454 0.0005525535617922053 -9.432605762345883 0.0005525535617922053 -9.432605762345883 C 0.0005525535617922053 -9.432605762345883 0.2708175517051206 -9.889324434380043 0.9091495284288237 -10.270696902728353 L 0.9091495284288237 -10.270696902728353 C 1.2563962888009064 -10.614164196737782 1.2451020939978925 -10.977191886834621 1.2451020939978925 -10.977191886834621 C 1.2928206195941836 -10.78872691797887 1.2473123082450583 -10.583773750839267 1.184343304343329 -10.417808763019652 C 1.322003347444646 -10.483337851424475 1.4638129740592742 -10.539767849665509 1.608859154796296 -10.586735437930468 C 1.7762386797340968 -10.850657121184435 1.7692323005705843 -11.076518915102215 1.7692323005705843 -11.076518915102215 C 1.806805942772388 -10.928279845544866 1.786582482410829 -10.769873790450552 1.7456272124108625 -10.628154852922338 C 1.7559268108026511 -10.631072335728591 1.7662706134793824 -10.633923512107437 1.776570211871172 -10.63677468848628 C 1.9546471737652495 -10.907548035906455 1.9473313646071344 -11.14262642323492 1.9473313646071344 -11.14262642323492 C 1.9867173824916136 -10.987027340234508 1.9625155364851576 -10.820222471000971 1.9174934722704078 -10.673331632134389 C 2.1470684261234285 -10.730222546856414 2.3548064632144605 -10.76887919403933 2.541525362814955 -10.800197929921655 C 2.722762931082478 -11.072960470164281 2.715425019781891 -11.310757421016756 2.715425019781891 -11.310757421016756 C 2.7564908004942157 -11.14852769527485 2.728465283840164 -10.974119689031067 2.679663753262763 -10.822786319527685 C 3.369250598378221 -10.933650666165475 3.7362566741199585 -10.974429119025672 3.813503662058372 -11.60157741165872" fill="#102036" transform="matrix(1,0,0,1,0,0)" fill-rule="evenodd"></path></g><g clip-path="url(#SvgjsClipPath10009b414c03-e584-4b86-8afa-727eed3963cd)"><path d=" M 3.8131721299212984 -11.601378492376469 C 3.8131721299212984 -11.601378492376469 1.923792582874828 -10.69077022254452 1.3642547440625545 -9.474997671606506 C 0.8047169052502812 -8.259225120668493 1.9215381643427207 -6.950711979919436 1.9215381643427207 -6.950711979919436 C 1.9215381643427207 -6.950711979919436 1.841020059318502 -7.552774340847163 2.144769803306379 -8.347744201267446 L 2.144769803306379 -8.347744201267446 C 2.2137063856754526 -8.902507977305845 1.9463588703383823 -9.220778828897593 1.9463588703383823 -9.220778828897593 C 2.1227339672621444 -9.085182184834025 2.226879262588555 -8.868758005751635 2.28790327795278 -8.674855909847853 C 2.3652859155166053 -8.831243407564019 2.452820649931324 -8.982398824034375 2.5499462790966505 -9.127353072669926 C 2.5134777440184326 -9.483197566463485 2.3472254283466856 -9.681276967294405 2.3472254283466856 -9.681276967294405 C 2.4859826787837003 -9.574612027726225 2.5800051928580974 -9.417885735459759 2.6435488524640887 -9.261490975330368 C 2.6507320487673742 -9.271370633015197 2.6580036536405474 -9.281382903554853 2.6653636670836063 -9.291218356954737 C 2.6336470926367896 -9.660788281223185 2.460587317083776 -9.86693496405626 2.460587317083776 -9.86693496405626 C 2.6062183338294735 -9.754965510294884 2.7026057771483356 -9.587851211066745 2.7661494367543273 -9.423853313927104 C 2.932247037428772 -9.637625235912896 3.09169189321925 -9.819481664169627 3.2373671142498908 -9.97992111637133 C 3.207175587633617 -10.353579936997033 3.0320603128307404 -10.562113651217047 3.0320603128307404 -10.562113651217047 C 3.183902031610971 -10.445370134681793 3.282168157039924 -10.26868560776343 3.3455349995061425 -10.098123374309708 C 3.8870374900615503 -10.686040364055582 4.188068670525414 -10.982805831022416 3.813304742776128 -11.60129008380658" fill="#102036" transform="matrix(1,0,0,1,0,0)" fill-rule="evenodd"></path></g><g clip-path="url(#SvgjsClipPath10009b414c03-e584-4b86-8afa-727eed3963cd)"><path d=" M 3.6522464305852194 -10.964836789192972 C 3.6522464305852194 -10.964836789192972 2.801689681848739 -9.776382486349917 2.8662058357234836 -8.845926492578425 C 2.9307219895982284 -7.915470498806928 4.05105748934366 -7.4891422726712875 4.05105748934366 -7.4891422726712875 C 4.05105748934366 -7.4891422726712875 3.800485500142572 -7.8302667395787235 3.7203431315403717 -8.41785219718752 L 3.7203431315403717 -8.41785219718752 C 3.5769665333267824 -8.78006210801291 3.3070330673205297 -8.88524620403549 3.3070330673205297 -8.88524620403549 C 3.4602230167915313 -8.861331685881165 3.5962617037045326 -8.763817033296249 3.698395704066024 -8.66572772500707 C 3.693406502115643 -8.787212491035477 3.6963597440839435 -8.908893443234389 3.707236561054684 -9.02999313508232 C 3.5659375642334297 -9.235366242928887 3.3980717921612533 -9.300832788929911 3.3980717921612533 -9.300832788929911 C 3.5185947750591566 -9.282023865686538 3.6284866274281975 -9.217684528951569 3.7196137608388073 -9.143266615249523 C 3.7206967658199184 -9.151775940101107 3.721823975085972 -9.160241060667751 3.7229953886369693 -9.168772487661807 C 3.580038731130342 -9.384069457478143 3.4052991927494825 -9.45223246486071 3.4052991927494825 -9.45223246486071 C 3.5317676519722596 -9.432473149491056 3.6465661799700064 -9.362541970710758 3.7402792640497995 -9.283571015659554 C 3.7702939735262997 -9.469781565983201 3.8069614278867654 -9.634309914542158 3.8423690601263476 -9.78106814055391 C 3.698948257627815 -9.999415206031333 3.5221532199970924 -10.06839599268535 3.5221532199970924 -10.06839599268535 C 3.6540146019829525 -10.047774693759301 3.7731893541900856 -9.972627409355695 3.8689800396622136 -9.889545455804765 C 4.003316861604898 -10.430053349948949 4.08816698655356 -10.712142994314608 3.6522464305852202 -10.96490309562039" fill="#102036" transform="matrix(1,0,0,1,0,0)" fill-rule="evenodd"></path></g><g clip-path="url(#SvgjsClipPath10009b414c03-e584-4b86-8afa-727eed3963cd)"><path d=" M 3.7106844952802605 -11.67844866317511 C 3.7106844952802605 -11.67844866317511 5.559904449455744 -11.428694453245477 6.368378718926204 -10.554466309921857 C 7.176852988396664 -9.680238166598244 6.592560750016143 -8.26550212913044 6.592560750016143 -8.26550212913044 C 6.592560750016143 -8.26550212913044 6.494780871721566 -8.797014451288664 6.018722825024712 -9.385793424590931 L 6.018722825024712 -9.385793424590931 C 5.807536853708102 -9.836080373165842 5.945940469865571 -10.179017215755952 5.945940469865571 -10.179017215755952 C 5.834103628959025 -10.015726587175408 5.805680273740484 -9.803921755869592 5.807448445138216 -9.623104128309027 C 5.698924656014921 -9.73409088478205 5.583244701199608 -9.837846973945927 5.461152076892412 -9.933705536463115 C 5.393961563778601 -10.24481529389405 5.480005204420731 -10.458189377315355 5.480005204420731 -10.458189377315355 C 5.392016575241096 -10.329709623127656 5.355680653017704 -10.171237261605935 5.345027420346369 -10.021406837790618 C 5.336186563357709 -10.027816459107395 5.32734570636905 -10.034159773996763 5.318372236525559 -10.040547293171066 C 5.243357564976782 -10.36191244470885 5.332937548414377 -10.583972670121511 5.332937548414377 -10.583972670121511 C 5.240616899310298 -10.449149601044448 5.2051208585008295 -10.281173318259913 5.196589431506773 -10.124977477412767 C 4.997161799985081 -10.260043670057016 4.812122663212433 -10.369979726710998 4.644676831847218 -10.46552728861594 C 4.567319333196445 -10.78994253581481 4.657938117330207 -11.014588711896653 4.657938117330207 -11.014588711896653 C 4.561661184723703 -10.87399698363449 4.52718184246793 -10.69746717171343 4.520595404011377 -10.535701590963425 C 3.9005861033966718 -10.883898743461788 3.564058882123339 -11.051897128388795 3.7106623931377887 -11.678382356747697" fill="#102036" transform="matrix(1,0,0,1,0,0)" fill-rule="evenodd"></path></g><g clip-path="url(#SvgjsClipPath10009b414c03-e584-4b86-8afa-727eed3963cd)"><path d=" M 3.1780228617135124 -11.371096269964358 C 3.1780228617135124 -11.371096269964358 4.423500692133423 -12.715282268662655 5.582581247631657 -12.870483513098575 C 6.741661803129889 -13.025684757534494 7.5476827347859965 -11.756999677519353 7.5476827347859965 -11.756999677519353 C 7.5476827347859965 -11.756999677519353 7.065524496766966 -11.978816779364825 6.323643982563586 -11.929241673800918 L 6.323643982563586 -11.929241673800918 C 5.842635055953082 -12.014136003034523 5.645439740821026 -12.319145569143283 5.645439740821026 -12.319145569143283 C 5.713403828921349 -12.137023915176892 5.867433659806272 -11.994509300519699 6.013639332256232 -11.893723530848977 C 5.863176304047534 -11.869275632765518 5.714478267066584 -11.834987962271995 5.568502182877219 -11.791081181210636 C 5.280621777183983 -11.912886088371899 5.157866477896443 -12.102588777206062 5.157866477896443 -12.102588777206062 C 5.211353662677834 -11.95930058756236 5.318084908673428 -11.840567878204663 5.4324192916792695 -11.747363143401714 C 5.422296510427255 -11.743848902748724 5.412151627032768 -11.7403567642382 5.401962539353337 -11.736732012872853 C 5.101483912451266 -11.858094877184678 4.973733528965132 -12.055555418026392 4.973733528965132 -12.055555418026392 C 5.02985086870065 -11.905260849219177 5.14469360098334 -11.781820383515015 5.26530499245113 -11.68660435374715 C 5.044283567734637 -11.602793029494656 4.851331863957138 -11.51641785671545 4.679951851231969 -11.43585554740629 C 4.375627451539829 -11.557019492435867 4.24644042879304 -11.756778656094635 4.24644042879304 -11.756778656094635 C 4.304922697773024 -11.600030261685701 4.427258056353602 -11.47258930819417 4.553483392009192 -11.375826128453289 C 3.923417616569884 -11.074662335134596 3.5983172029543944 -10.899348141049472 3.1780228617135116 -11.371096269964355" fill="#102036" transform="matrix(1,0,0,1,0,0)" fill-rule="evenodd"></path></g><g clip-path="url(#SvgjsClipPath10009b414c03-e584-4b86-8afa-727eed3963cd)"><path d=" M 3.3247147812978484 -11.505499398334457 C 3.3247147812978484 -11.505499398334457 3.3541106307851423 -12.812664308392744 3.899812528410164 -13.443857293098104 C 4.445514426035185 -14.075050277803465 5.4761594316306645 -13.778726853686063 5.4761594316306645 -13.778726853686063 C 5.4761594316306645 -13.778726853686063 5.113684295095616 -13.669144431311624 4.740887458026307 -13.291639837895854 L 4.740887458026307 -13.291639837895854 C 4.443856765349812 -13.109429775359574 4.194190963990061 -13.17905152414527 4.194190963990061 -13.17905152414527 C 4.3166810375679425 -13.113916510281319 4.466356746385951 -13.110534882483156 4.592162141334579 -13.126006382213312 C 4.523348791606671 -13.041747529613213 4.4601337041942966 -12.953067733431242 4.402923597492317 -12.860537548986333 C 4.191560809035935 -12.78945705879751 4.036249053887656 -12.832733053756996 4.036249053887656 -12.832733053756996 C 4.132570190779103 -12.781478185365243 4.24577736451889 -12.768636840589213 4.350961460541471 -12.772814145516355 C 4.347204096321289 -12.766183502774863 4.343424629958638 -12.759552860033367 4.339689367880929 -12.752745400152097 C 4.121784345252938 -12.675387901501328 3.9601292752152952 -12.72047627214349 3.9601292752152952 -12.72047627214349 C 4.061268679165562 -12.666679657367496 4.180973882792015 -12.655120236854824 4.290423692311622 -12.661353041031829 C 4.211938984394796 -12.51194255792348 4.149854066191933 -12.374533538177234 4.096388983553013 -12.25047421248387 C 3.876538972387517 -12.171238031723004 3.713005220239784 -12.216812649499545 3.713005220239784 -12.216812649499545 C 3.8184103376870797 -12.160761616191444 3.944061017638406 -12.150506222084598 4.057223987093251 -12.158617708371693 C 3.8631450740496978 -11.699688822090366 3.7724378813460495 -11.452233234977777 3.3247589855827924 -11.505388887622097" fill="#102036" transform="matrix(1,0,0,1,0,0)" fill-rule="evenodd"></path></g><g clip-path="url(#SvgjsClipPath10009b414c03-e584-4b86-8afa-727eed3963cd)"><path d=" M 4.080608053828255 -10.27843265259343 C 4.256342188620339 -10.30981769490317 4.440386728981762 -10.10261010923146 4.491707903800932 -9.815613789237092 C 4.543029078620101 -9.528617469242725 4.441978083239721 -9.27057495588622 4.266266050590109 -9.239189913576476 C 4.090554017940497 -9.207804871266733 3.906487375436601 -9.415012456938449 3.8551662006174316 -9.702008776932814 C 3.803845025798262 -9.98900509692718 3.9049181233211145 -10.247069712426159 4.080718564540613 -10.27843265259343" fill="#102036" transform="matrix(1,0,0,1,0,0)" fill-rule="evenodd"></path></g><g clip-path="url(#SvgjsClipPath10009b414c03-e584-4b86-8afa-727eed3963cd)"><path d=" M 9.302062395615632 -10.218646357207618 C 9.302062395615632 -10.218646357207618 9.253747112172608 -10.165954849555206 8.970972301390326 -9.878273363144219 C 8.699115948989038 -9.601620845826583 8.38864715368978 -9.124214568438962 8.127576646814658 -8.472577101947321 L 7.969789451709555 -8.569075055978544 L 8.111066346388338 -8.430980869815677 C 8.044450488978786 -8.261413232773183 7.981172055082454 -8.08035248164543 7.9228223989573 -7.888240659281855 L 7.714156071882459 -7.974439014921287 L 7.907527716366919 -7.83740573159706 C 7.851653500198589 -7.648763945601534 7.800487040376721 -7.449778356929275 7.755487078304443 -7.240647884862529 L 7.480890060236672 -7.353965569314673 L 7.740546029993608 -7.170009437523136 C 7.704121699200329 -6.99367854488432 7.67232408356445 -6.8105254576025835 7.645153183085969 -6.620550175677936 L 7.321224183021477 -6.754091320491645 L 7.624023534883073 -6.5395458235193455 L 7.633306434721166 -6.532915180777852 C 7.60616500376598 -6.3271294996051495 7.585477398412517 -6.113814355230437 7.571243618660774 -5.892969747653719 L 7.536653765692643 -5.907247731690402 L 7.193672718817589 -6.048701443508959 L 7.496472070679185 -5.83415594653666 L 7.5649887123412975 -5.785531233099029 C 7.555750016788148 -5.608890910465609 7.551204342819813 -5.427734383387147 7.551351690436291 -5.242061651863642 L 7.4527761350127335 -5.28275169615395 L 7.10979508813768 -5.424625348679468 L 7.412594439999276 -5.210101953849641 L 7.552501001844816 -5.110973844864292 C 7.555330076081187 -4.917624302522306 7.563706788077942 -4.719721718831156 7.577631137835081 -4.517266093790848 L 6.722035100615065 -4.5067896782592864 C 6.722035100615065 -5.049795114502768 6.809802708369984 -5.764755219175681 6.996963650819911 -6.5123380861367455 L 7.0740780259034945 -6.474366605370452 L 7.406980495811476 -6.310412912515758 L 7.1190337836908295 -6.544496703432996 L 7.024790248191717 -6.621080627097262 C 7.071027930242407 -6.796925272601702 7.12252592220135 -6.974184455224329 7.179770471202922 -7.1510679014249385 L 7.497820301369956 -6.99440791558589 L 7.209873589249308 -7.228491706503127 L 7.206204633599015 -7.23145339359433 C 7.263007139751153 -7.401838809908273 7.32513626223896 -7.571539059805597 7.392614103204904 -7.739117504025643 L 7.681047062459928 -7.5971112386452955 L 7.421037458423446 -7.808474027101676 C 7.496582581391543 -7.991214541057273 7.578625734246305 -8.170949163636724 7.66738793841245 -8.3459097234423 L 7.888409363128942 -8.237078773911902 L 7.6930043215370905 -8.39586056542823 C 8.092367933857322 -9.167534767683394 8.623504519593528 -9.836500313872804 9.302217110612933 -10.21864635720762" fill="#102036" transform="matrix(1,0,0,1,0,0)" fill-rule="evenodd"></path></g><g clip-path="url(#SvgjsClipPath10009b414c03-e584-4b86-8afa-727eed3963cd)"><path d=" M 8.697436186161193 -10.336273959441737 C 8.697436186161193 -10.336273959441737 10.004291666224875 -10.792285362916802 10.832657863919817 -10.48550762541031 C 11.661024061614762 -10.178729887903817 11.749631550783604 -9.046901274073129 11.749631550783604 -9.046901274073129 C 11.749631550783604 -9.046901274073129 11.506507983595462 -9.365547862086895 10.99387089110803 -9.59503440737003 L 10.99387089110803 -9.59503440737003 C 10.702918287611238 -9.821912899841509 10.679313199451515 -10.095227993645924 10.679313199451515 -10.095227993645924 C 10.660194846213539 -9.949663283327641 10.712466413158989 -9.800031778794576 10.774352412079608 -9.681055945869687 C 10.665281495118558 -9.717981985192841 10.553914790222382 -9.74774326783912 10.440963695037246 -9.770149682172907 C 10.291995254778332 -9.953332238977934 10.277275227892215 -10.123364021012332 10.277275227892215 -10.123364021012332 C 10.262245771011493 -10.008830718724244 10.29144270121654 -9.891777772194391 10.334740798318503 -9.789113320413577 C 10.326739822743766 -9.790373142534461 10.318716745026556 -9.791655066797817 10.310649463024404 -9.792826480348815 C 10.15312749362896 -9.980164239938514 10.137766504611163 -10.157158196851483 10.137766504611163 -10.157158196851483 C 10.12200767702888 -10.036944643948184 10.154939869311635 -9.914034629663341 10.201752207066589 -9.807767528659653 C 10.024493024443961 -9.830112794698488 9.865202883650785 -9.840699720942407 9.722378838998987 -9.84755138510862 C 9.562226714649416 -10.036104762534258 9.54673311277679 -10.215176320839564 9.54673311277679 -10.215176320839564 C 9.530267016635412 -10.089857173025312 9.566779755998576 -9.961532133834915 9.616730597984503 -9.852281243597552 C 9.089727112890497 -9.874383386069201 8.810731768470868 -9.87248260181664 8.69728147116389 -10.33603083587454" fill="#102036" transform="matrix(1,0,0,1,0,0)" fill-rule="evenodd"></path></g><g clip-path="url(#SvgjsClipPath10009b414c03-e584-4b86-8afa-727eed3963cd)"><path d=" M 8.697745616155796 -10.336097142301966 C 8.697745616155796 -10.336097142301966 10.195629913601943 -9.820432056295914 10.723097543687853 -8.95791804848227 C 11.250565173773765 -8.09540404066863 10.528598689937338 -7.015139725224295 10.528598689937338 -7.015139725224295 C 10.528598689937338 -7.015139725224295 10.535649273385793 -7.473891794365848 10.237380860730887 -8.04330929086295 L 10.237380860730887 -8.04330929086295 C 10.136528784632752 -8.453326135854518 10.308859189484203 -8.715789077705356 10.308859189484203 -8.715789077705356 C 10.188579330153486 -8.598404599038425 10.129632916181597 -8.42684776917348 10.101099050250697 -8.275956442519533 C 10.029212396242952 -8.38642177719607 9.950168048305812 -8.492060347183424 9.864473512949225 -8.592193897003884 C 9.860274105879608 -8.862370486577333 9.967491599009577 -9.025661115157877 9.967491599009577 -9.025661115157877 C 9.872850224945976 -8.933362568196268 9.816202433791139 -8.807468764677754 9.782386155809515 -8.68451454610797 C 9.776064943062623 -8.691322005989239 9.769765832458203 -8.698107363728035 9.763378313283898 -8.704914823609302 C 9.754404843440406 -8.984926866582626 9.865976458637293 -9.154870240047138 9.865976458637293 -9.154870240047138 C 9.766649430369702 -9.058018651736372 9.709183859943414 -8.924101770500648 9.676008544093467 -8.79546730131565 C 9.532499333025047 -8.94109831806135 9.396792178249122 -9.063411574499455 9.273307508260016 -9.170850089054143 C 9.262875297013398 -9.453757512691254 9.375750938616111 -9.625734283263156 9.375750938616111 -9.625734283263156 C 9.272180298993964 -9.52472749216772 9.214095868578468 -9.383516903916354 9.181672025572558 -9.24999786124512 C 8.723538816420213 -9.643128669388346 8.471331268676222 -9.838997855972103 8.697635105443439 -10.336119244444436" fill="#102036" transform="matrix(1,0,0,1,0,0)" fill-rule="evenodd"></path></g><g clip-path="url(#SvgjsClipPath10009b414c03-e584-4b86-8afa-727eed3963cd)"><path d=" M 8.874761675211237 -9.872858338238665 C 8.874761675211237 -9.872858338238665 9.618034624390331 -9.05669252318807 9.652049821654199 -8.353048715460641 C 9.686065018918066 -7.649404907733214 8.88340361291765 -7.230370388613217 8.88340361291765 -7.230370388613217 C 8.88340361291765 -7.230370388613217 9.041146603737811 -7.508459545191506 9.049169681455021 -7.956293155952068 L 9.049169681455021 -7.956293155952068 C 9.12462639585323 -8.240681423134777 9.317777018912974 -8.343478487770419 9.317777018912974 -8.343478487770419 C 9.205056092307563 -8.311982934748322 9.111586131794958 -8.226801277662585 9.043710452264524 -8.144183469103558 C 9.036757936544022 -8.235735094716679 9.023815203835078 -8.326732915958985 9.00496539651172 -8.416592375066642 C 9.092777208551587 -8.583176222875458 9.212902352884997 -8.647184027473354 9.212902352884997 -8.647184027473354 C 9.12559838432487 -8.619060120032746 9.047225881109274 -8.568470905498426 8.985648123991501 -8.50049210788902 C 8.984056769733542 -8.506769116350966 8.982487517618056 -8.513024022670443 8.980829856932681 -8.519301031132391 C 9.069039507537035 -8.69348801595146 9.194071327499154 -8.760081771218541 9.194071327499154 -8.760081771218541 C 9.100932899123624 -8.734067549529406 9.021033654088612 -8.671430077764754 8.95775522019228 -8.603908032513864 C 8.918700734444876 -8.740941315838093 8.876662459463798 -8.861088562313977 8.837077522297076 -8.968062931876759 C 8.925331377186371 -9.144526437370407 9.05184404069409 -9.211871665481521 9.05184404069409 -9.211871665481521 C 8.954749328816135 -9.184752336668808 8.872021009544751 -9.117849151407125 8.80752695781248 -9.047055989070433 C 8.658890049690639 -9.440474125065789 8.570238356236851 -9.644675819361359 8.874850083781123 -9.872858338238665" fill="#102036" transform="matrix(1,0,0,1,0,0)" fill-rule="evenodd"></path></g><g clip-path="url(#SvgjsClipPath10009b414c03-e584-4b86-8afa-727eed3963cd)"><path d=" M 8.76774310136351 -10.402934021136232 C 8.76774310136351 -10.402934021136232 7.402692680171977 -10.051974100828911 6.873677900113051 -9.32457048994446 C 6.344663120054125 -8.597166879060008 6.908223548796238 -7.587717828094842 6.908223548796238 -7.587717828094842 C 6.908223548796238 -7.587717828094842 6.93450299619503 -7.995060313847337 7.239468358018847 -8.47885411040927 L 7.239468358018847 -8.47885411040927 C 7.358002148094302 -8.835339566334502 7.223775836863975 -9.080341815632735 7.223775836863975 -9.080341815632735 C 7.3221524730052865 -8.967753501882154 7.362223657306387 -8.811425048180178 7.376921582050033 -8.675585280549424 C 7.448517068101712 -8.768451611425352 7.526121919499065 -8.856525845305956 7.6092372015695435 -8.939241738093731 C 7.632135021170169 -9.178541634634273 7.548633126912277 -9.33100221340371 7.548633126912277 -9.33100221340371 C 7.62599062556305 -9.242394724234869 7.667321631985034 -9.12673421268073 7.688583893042761 -9.015295210338671 C 7.694617777937521 -9.020864950241528 7.700740071402167 -9.026346281574497 7.706862364866814 -9.032026532189711 C 7.734711064381093 -9.279725242869484 7.647805440182568 -9.43835231938851 7.647805440182568 -9.43835231938851 C 7.729008711623408 -9.345390708152753 7.770538637327636 -9.222591204580269 7.790762097689195 -9.106157118039622 C 7.928392138860156 -9.225132950964511 8.057446548752116 -9.323951629955255 8.174587903851858 -9.410481517731762 C 8.203895344769265 -9.66065566836836 8.115995124159516 -9.821183529139951 8.115995124159516 -9.821183529139951 C 8.200690534110874 -9.72419932797435 8.242176255530161 -9.594835488087789 8.26144932376544 -9.474179892335053 C 8.695668014763463 -9.79024052967964 8.93335445490358 -9.946104838389711 8.767787305648454 -10.403044531848586" fill="#102036" transform="matrix(1,0,0,1,0,0)" fill-rule="evenodd"></path></g><g clip-path="url(#SvgjsClipPath10009b414c03-e584-4b86-8afa-727eed3963cd)"><path d=" M 9.19453547249106 -10.219707260046256 C 9.19453547249106 -10.219707260046256 8.141235770862139 -11.117628900099483 7.258012055552561 -11.13139853485932 C 6.374788340242982 -11.145168169619158 5.882573627399352 -10.122148403176396 5.882573627399352 -10.122148403176396 C 5.882573627399352 -10.122148403176396 6.224582180005654 -10.33125677310067 6.7855124537936415 -10.359702230461686 L 6.7855124537936415 -10.359702230461686 C 7.138793099060485 -10.465947229322904 7.259713920522878 -10.71218719859955 7.259713920522878 -10.71218719859955 C 7.224858841845086 -10.56962837965741 7.1218628579272005 -10.449061192474563 7.021187598968838 -10.360564214018076 C 7.136235053162408 -10.355551140467098 7.2508299978062265 -10.342999667888364 7.364234952271308 -10.322990571816275 C 7.569320732265742 -10.439866701206356 7.644622731666651 -10.593034548534884 7.644622731666651 -10.593034548534884 C 7.617193972859334 -10.480821971206321 7.547638530501054 -10.382268517925239 7.47001580614062 -10.302236660035392 C 7.477950475287943 -10.300534795065078 7.4858630422927925 -10.298766623667344 7.493775609297644 -10.296998452269612 C 7.708475821267245 -10.414626054503731 7.786783712044299 -10.574070910294207 7.786783712044299 -10.574070910294207 C 7.758050926831155 -10.45628859306279 7.682903642427547 -10.353579936997036 7.600727876717954 -10.271492579857327 C 7.774052877980629 -10.228216584897837 7.9263808438952355 -10.18038754858919 8.062065896528692 -10.135210769377135 C 8.279573080592192 -10.253037290893499 8.358809261353056 -10.414360828794068 8.358809261353056 -10.414360828794068 C 8.328794551876555 -10.291561325221586 8.248298548994809 -10.185139509220594 8.162232806210206 -10.101394491395514 C 8.661542306787236 -9.931207994363813 8.920933050834511 -9.828543542583002 9.194402859636229 -10.219663055761309" fill="#102036" transform="matrix(1,0,0,1,0,0)" fill-rule="evenodd"></path></g><g clip-path="url(#SvgjsClipPath10009b414c03-e584-4b86-8afa-727eed3963cd)"><path d=" M 9.072531646047555 -10.307430663516234 C 9.072531646047555 -10.307430663516234 8.934746889879293 -11.285362059316828 8.469474688708603 -11.710540974043948 C 8.004202487537913 -12.135719888771064 7.257348991278411 -11.822112589240835 7.257348991278411 -11.822112589240835 C 7.257348991278411 -11.822112589240835 7.5389744906521665 -11.77198493011513 7.8520292366206075 -11.521877085905949 L 7.8520292366206075 -11.521877085905949 C 8.090975498881608 -11.411366373547702 8.272080454294302 -11.485806389392216 8.272080454294302 -11.485806389392216 C 8.18588209865487 -11.426130604718765 8.07397895132091 -11.410415981421423 7.978276674418669 -11.410791717843441 C 8.037363492425259 -11.353700707819758 8.092634787441511 -11.292788580664526 8.143733312961434 -11.228449042452333 C 8.308548989372524 -11.19383708734173 8.421225711692992 -11.240030565107476 8.421225711692992 -11.240030565107476 C 8.352020122373853 -11.19597963816615 8.272456912883717 -11.170881290733348 8.190501446431444 -11.16724820994834 C 8.193883074229607 -11.162606760029288 8.197308906312713 -11.157899003682829 8.200690534110874 -11.153213349478838 C 8.370877031142575 -11.114512498010981 8.488283611951976 -11.162606760029288 8.488283611951976 -11.162606760029288 C 8.415551853824754 -11.116646533924898 8.33174268645297 -11.091215102601033 8.245734700468097 -11.089006625598698 C 8.317853991353088 -10.983888836003532 8.376601486042732 -10.88628577484873 8.427679537294713 -10.79796561353202 C 8.599634205724145 -10.758004939943277 8.71827850651196 -10.80669595980832 8.71827850651196 -10.80669595980832 C 8.644147920662048 -10.755308478561732 8.550810573004272 -10.736521657460834 8.4651868730691 -10.732543271815935 C 8.65141952553522 -10.405431563235526 8.74146365396472 -10.227885052760765 9.072487441762611 -10.30738645923129" fill="#102036" transform="matrix(1,0,0,1,0,0)" fill-rule="evenodd"></path></g><g clip-path="url(#SvgjsClipPath10009b414c03-e584-4b86-8afa-727eed3963cd)"><path d=" M 8.59930267358707 -9.254086757602371 C 8.741662573246964 -9.254086757602371 8.85710206337639 -9.065621788746617 8.85710206337639 -8.833129352087337 C 8.85710206337639 -8.600636915428058 8.741662573246964 -8.412171946572304 8.59930267358707 -8.412171946572304 C 8.456942773927176 -8.412171946572304 8.341459079512811 -8.60063691542806 8.341459079512811 -8.83312935208734 C 8.341459079512811 -9.065621788746618 8.456898569642235 -9.254086757602373 8.59930267358707 -9.254086757602373" fill="#102036" transform="matrix(1,0,0,1,0,0)" fill-rule="evenodd"></path></g><g clip-path="url(#SvgjsClipPath10009b414c03-e584-4b86-8afa-727eed3963cd)"><path d=" M 14.175186972049815 -13.12114391086955 C 14.51337677906128 -13.121873429358423 14.849807966366125 -13.072483909930975 15.173518645351743 -12.974584604140045 C 15.497222449413952 -13.072480794205088 15.833645885220387 -13.121870269117247 16.171828216511205 -13.121143910869545 C 17.147328376639912 -13.12114391086955 18.008140519483238 -12.721581379267072 18.52155118695718 -12.112534741318305 C 17.878378841032188 -12.502350228090783 17.061328940282728 -12.735815159018816 16.171828216511198 -12.735815159018816 C 16.038154458842662 -12.735815159018816 15.906219403048567 -12.730657992442097 15.776023049128904 -12.72034365928866 C 16.060467353281904 -12.564947988900673 16.314229959391316 -12.359043922813663 16.524887840353326 -12.112711558458077 C 16.107222768640167 -12.361935597002931 15.650272128161024 -12.538432053212336 15.173518645351745 -12.634675755068548 C 14.696752394434606 -12.538428178849722 14.2397878550952 -12.361932127543962 13.822105246065222 -12.11271155845808 C 14.032782808794137 -12.359023724990056 14.286541443350105 -12.564924568541572 14.57097003728964 -12.72034365928866 C 14.440906296224808 -12.730657992442097 14.308978607811532 -12.735815159018816 14.175186972049815 -12.735815159018816 C 13.285730452563234 -12.735815159018816 12.468702653956242 -12.5024165345182 11.825464001603834 -12.112534741318305 C 12.338874669077775 -12.721581379267072 13.199708914063574 -13.12114391086955 14.175186972049815 -13.12114391086955" fill="#102036" transform="matrix(1,0,0,1,0,0)" fill-rule="evenodd"></path></g><g clip-path="url(#SvgjsClipPath10009b414c03-e584-4b86-8afa-727eed3963cd)"><path d=" M 10.208250236953255 -14.308294187306776 C 10.472129257102848 -14.308859582248575 10.734635776614141 -14.270322278538684 10.987218146224066 -14.193937702158465 C 11.239799449233288 -14.270327054490561 11.50230668425696 -14.30886446324134 11.766186055494869 -14.308294187306776 C 12.527295433648588 -14.308294187306776 13.198979543362011 -13.996653978456521 13.599580875660653 -13.521325302461232 C 13.097685424414442 -13.825494987156072 12.460171226962187 -14.007572436837515 11.766186055494872 -14.007572436837515 C 11.66183447350539 -14.007572436837515 11.558882693872448 -14.003520377384383 11.457330716596044 -13.99541625847811 C 11.67926663030645 -13.874157316333374 11.877267548879376 -13.713499234693707 12.041645057119037 -13.52130320031876 C 11.715758984360397 -13.715768005702232 11.359214469488364 -13.853477130799854 10.987218146224064 -13.928557277501373 C 10.615202797924534 -13.853494704254 10.25864085721546 -13.71578462188997 9.932747031044146 -13.52130320031876 C 10.097141103902716 -13.713482234847818 10.295138680723857 -13.874137604987784 10.517061371567138 -13.995416258478107 C 10.415568333337324 -14.003446703576142 10.31263128846603 -14.007498763029277 10.208250236953255 -14.007572436837515 C 9.514242963343467 -14.007572436837515 8.876728765891214 -13.825472885013596 8.374855416787472 -13.521325302461232 C 8.775434646943644 -13.99652136560169 9.447096654514596 -14.308294187306776 10.208250236953255 -14.308294187306776" fill="#102036" transform="matrix(1,0,0,1,0,0)" fill-rule="evenodd"></path></g><g clip-path="url(#SvgjsClipPath10009b414c03-e584-4b86-8afa-727eed3963cd)"><path d=" M 15.138707770958897 -14.791248102454787 C 15.335411365466427 -14.7916858152241 15.531093538822638 -14.762965106467192 15.719375257974065 -14.706022241084106 C 15.907672860564665 -14.76296178391569 16.103369105422722 -14.791682371575456 16.30008694927418 -14.791248102454787 C 16.867493150806364 -14.791248102454787 17.368172984216635 -14.558866176507864 17.66683923543603 -14.204590934829795 C 17.292694167675954 -14.431336814446448 16.81743179810808 -14.567066071364847 16.30008694927418 -14.567066071364847 C 16.222287407773976 -14.567066071364847 16.145541401731585 -14.56403807784623 16.06984893114701 -14.557982090809 C 16.235298298443297 -14.46760153895068 16.382897189933427 -14.347834254543175 16.505415852835803 -14.204546730544857 C 16.262479061383374 -14.349519855802486 15.996687106869953 -14.452185025050907 15.719375257974066 -14.5081638616779 C 15.44206340907818 -14.452185025050907 15.17627145456476 -14.349519855802486 14.933334663112328 -14.204546730544857 C 15.055849873098463 -14.347828958518502 15.203440497120711 -14.467595611758114 15.36887948265865 -14.557982090809 C 15.293275420643962 -14.563964404037993 15.216551516744044 -14.566992397556609 15.138707770958897 -14.567066071364847 C 14.621318717840058 -14.567066071364847 14.146100552557126 -14.431292610161506 13.771955484797047 -14.204590934829795 C 14.0705775317315 -14.558866176507864 14.571279467284244 -14.791248102454787 15.138707770958897 -14.791248102454787" fill="#102036" transform="matrix(1,0,0,1,0,0)" fill-rule="evenodd"></path></g></g></g><defs><clipPath id="SvgjsClipPath1001"><path d=" M 0 -14.791248102454787 h 21.06577301115368 v 13.906248102454787 h -21.06577301115368 Z"></path></clipPath><clipPath id="SvgjsClipPath10009b414c03-e584-4b86-8afa-727eed3963cd"><path d=" M 0 -14.791248102454789 L 21.06577301115368 -14.791248102454789 L 21.06577301115368 -0.8849999999999998 L 0 -0.8849999999999998 Z"></path></clipPath></defs></svg>